<svg width="200" height="70" viewBox="0 0 200 70" fill="none" xmlns="http://www.w3.org/2000/svg">
<path d="M27.5371 53.4299C26.8207 53.4207 26.1467 53.3118 25.5171 53.1031C24.8875 52.8945 24.3372 52.5917 23.8701 52.1965C23.403 51.8014 23.0337 51.3158 22.7604 50.7397C22.489 50.1636 22.3523 49.5063 22.3523 48.7714V39.5781H20.7903C20.5262 39.5781 20.3305 39.519 20.1976 39.4027C20.0665 39.2864 20 39.0906 20 38.8192V36.8675C20 36.6053 20.0646 36.4207 20.1976 36.3118C20.3287 36.2047 20.5262 36.1493 20.7903 36.1493H22.356C22.356 35.6692 22.3579 35.1891 22.3616 34.7146C22.3671 34.2382 22.369 33.76 22.369 33.2781C22.369 33.0971 22.4262 32.955 22.5388 32.8497C22.6515 32.7463 22.8269 32.6522 23.0614 32.5709C23.2146 32.5155 23.403 32.4509 23.619 32.3734C23.8369 32.2958 24.0621 32.2219 24.2929 32.1481C24.5237 32.0761 24.7472 32.0151 24.965 31.9634C25.1829 31.9154 25.3639 31.8896 25.5097 31.8896C25.7922 31.8896 25.975 31.9671 26.06 32.1204C26.1467 32.2755 26.1892 32.4786 26.1892 32.7334C26.1892 33.3039 26.1892 33.8745 26.1837 34.4413C26.1781 35.0082 26.1763 35.5769 26.1763 36.1493H28.1353C28.3717 36.1493 28.5526 36.2102 28.68 36.3321C28.8074 36.4539 28.8702 36.646 28.8702 36.9082V38.7638C28.8702 39.0537 28.8074 39.2605 28.68 39.3879C28.5526 39.5153 28.3717 39.5781 28.1353 39.5781H26.1763V42.1594C26.1763 42.4733 26.1781 42.7669 26.1837 43.0383C26.1892 43.3116 26.1892 43.6051 26.1892 43.9227V46.5114C26.1892 46.5299 26.1892 46.5483 26.1837 46.5668C26.1781 46.5853 26.1763 46.6019 26.1763 46.6203V48.4058C26.1763 49.0059 26.2945 49.4361 26.5308 49.7002C26.7671 49.9642 27.1475 50.0953 27.6737 50.0953C27.8639 50.0953 28.0135 50.1636 28.1224 50.3003C28.2313 50.4369 28.2867 50.5994 28.2867 50.7896V52.6821C28.2867 52.9185 28.2203 53.1013 28.0892 53.2324C27.9581 53.3635 27.7734 53.4299 27.5389 53.4299" fill="#009F69"/>
<path d="M45.5951 53.2472C45.4936 53.2619 45.3865 53.2841 45.2683 53.2878C45.1501 53.2933 45.0467 53.2952 44.9563 53.2952H43.5825C43.3185 53.2952 43.06 53.1918 42.9344 53.0238C42.807 52.8557 42.7849 52.6822 42.7387 52.4643L42.5873 51.2253C42.3879 51.5245 42.1386 51.8125 41.8395 52.0895C41.5404 52.3664 41.1859 52.612 40.7778 52.8243C40.3697 53.0385 39.9007 53.2084 39.369 53.3358C38.8372 53.4632 38.2371 53.526 37.5669 53.526C36.4867 53.526 35.534 53.334 34.7086 52.948C33.8833 52.5621 33.1927 52.0359 32.6332 51.3694C32.0756 50.7028 31.6509 49.9162 31.361 49.0096C31.0712 48.103 30.9253 47.1281 30.9253 46.0849V37.0097C30.9253 36.6829 31.0028 36.4355 31.1579 36.2675C31.3112 36.0994 31.5328 36.0164 31.8245 36.0164H33.8925C34.2562 36.0164 34.4981 36.0847 34.6218 36.2213C34.7437 36.3579 34.8046 36.598 34.8046 36.9433V46.0184C34.8046 46.5003 34.8803 46.9693 35.028 47.4272C35.1794 47.8852 35.4029 48.2951 35.702 48.6588C36.0011 49.0207 36.3759 49.3124 36.8246 49.5285C37.2733 49.7464 37.7977 49.8553 38.3959 49.8553C38.8132 49.8553 39.249 49.7833 39.7013 49.6374C40.1537 49.4915 40.5673 49.27 40.9403 48.9709C41.3114 48.6717 41.6198 48.2969 41.8653 47.8482C42.1091 47.3996 42.2328 46.8752 42.2328 46.2769V37.4473C42.2328 37.283 42.242 37.1187 42.2605 36.9506C42.2789 36.7826 42.3177 36.6294 42.3768 36.4872C42.4359 36.3469 42.519 36.2342 42.6224 36.1475C42.7258 36.0607 42.8698 36.0182 43.0507 36.0182H45.296C45.5951 36.0182 45.8148 36.0921 45.9552 36.2361C46.0955 36.3819 46.1657 36.5851 46.1657 36.8491V52.4975C46.1749 52.7948 45.9404 53.1992 45.5951 53.2527" fill="#009F69"/>
<path d="M59.1072 36.9265C59.1072 36.6367 58.9226 36.3745 58.6493 36.2803C58.2708 36.1492 57.787 36.031 57.5507 35.9923C57.1869 35.9332 56.7807 35.9036 56.3265 35.9036C55.8187 35.9036 55.3664 35.9664 54.9657 36.0938C54.5669 36.2212 54.2087 36.3892 53.8911 36.5979C53.5735 36.8065 53.291 37.0447 53.0417 37.3124C52.7906 37.5802 52.5672 37.8534 52.3659 38.136C52.329 37.9458 52.2976 37.7353 52.2699 37.5026C52.2422 37.2718 52.1979 37.0558 52.1333 36.8564C52.0705 36.657 51.9782 36.4889 51.86 36.3542C51.7418 36.2175 51.5683 36.1492 51.3412 36.1492H49.6074C49.3969 36.1492 49.2049 36.2175 49.0276 36.3542C48.8503 36.4908 48.7617 36.6902 48.7617 36.9524V52.6137C48.7617 53.1584 49.0442 53.4299 49.6092 53.4299H51.8489C52.4121 53.4299 52.6946 53.1584 52.6946 52.6137V43.5072C52.7629 42.6615 52.7629 42.1131 53.0731 41.5241C53.2596 41.1678 53.9354 39.6869 55.8391 39.4857C56.5315 39.4118 57.2774 39.4691 58.0621 39.807C58.4314 39.9251 59.0426 40.0987 59.1072 39.3546V36.9284V36.9265Z" fill="#009F69"/>
<path d="M67.9867 53.4299C67.2703 53.4207 66.5963 53.3118 65.9667 53.1031C65.3371 52.8945 64.7868 52.5917 64.3197 52.1965C63.8526 51.8014 63.4833 51.3158 63.21 50.7397C62.9367 50.1636 62.8019 49.5063 62.8019 48.7714V39.5781H61.2362C60.9721 39.5781 60.7764 39.519 60.6453 39.4027C60.5142 39.2864 60.4478 39.0906 60.4478 38.8192V36.8675C60.4478 36.6053 60.5124 36.4207 60.6453 36.3118C60.7764 36.2047 60.974 36.1493 61.2362 36.1493H62.8019C62.8019 35.6692 62.8038 35.1891 62.8075 34.7146C62.813 34.2382 62.8149 33.76 62.8149 33.2781C62.8149 33.0971 62.8721 32.955 62.9847 32.8497C63.0974 32.7463 63.2728 32.6522 63.5073 32.5709C63.6605 32.5155 63.8489 32.4509 64.0649 32.3734C64.2828 32.2958 64.508 32.2219 64.7388 32.1481C64.9696 32.0761 65.1931 32.0151 65.4109 31.9634C65.6288 31.9154 65.8098 31.8896 65.9556 31.8896C66.2381 31.8896 66.4209 31.9671 66.5059 32.1204C66.5926 32.2755 66.6351 32.4786 66.6351 32.7334C66.6351 33.3039 66.6351 33.8745 66.6296 34.4413C66.624 35.0082 66.6222 35.5769 66.6222 36.1493H68.5812C68.8176 36.1493 68.9985 36.2102 69.1259 36.3321C69.2533 36.4539 69.3161 36.646 69.3161 36.9082V38.7638C69.3161 39.0537 69.2533 39.2605 69.1259 39.3879C68.9985 39.5153 68.8176 39.5781 68.5812 39.5781H66.6222V42.1594C66.6222 42.4733 66.624 42.7669 66.6296 43.0383C66.6351 43.3116 66.6351 43.6051 66.6351 43.9227V46.5114C66.6351 46.5299 66.6351 46.5483 66.6296 46.5668C66.624 46.5853 66.6222 46.6019 66.6222 46.6203V48.4058C66.6222 49.0059 66.7404 49.4361 66.9767 49.7002C67.213 49.9642 67.5934 50.0953 68.1196 50.0953C68.3098 50.0953 68.4594 50.1636 68.5683 50.3003C68.6773 50.4369 68.7326 50.5994 68.7326 50.7896V52.6821C68.7326 52.9185 68.6662 53.1013 68.5351 53.2324C68.404 53.3635 68.2193 53.4299 67.9848 53.4299" fill="#009F69"/>
<path d="M71.5354 31.836C71.5354 31.5997 71.5982 31.4058 71.7256 31.2507C71.853 31.0956 72.0469 31.0199 72.3109 31.0199H74.6909C74.8719 31.0199 75.0418 31.0974 75.2024 31.2507C75.3612 31.4058 75.4406 31.5997 75.4406 31.836V52.6138C75.4406 52.8852 75.3649 53.0902 75.2153 53.2268C75.0658 53.3634 74.8645 53.4318 74.6097 53.4318H72.3386C72.0469 53.4318 71.8419 53.3634 71.72 53.2268C71.5982 53.0902 71.5354 52.8852 71.5354 52.6138V31.836Z" fill="#009F69"/>
<path d="M86.0927 39.2513C85.5572 39.2513 85.0347 39.3492 84.5269 39.543C84.0192 39.7388 83.5539 40.0028 83.1329 40.3388C82.7101 40.6749 82.3426 41.07 82.0306 41.5224C81.7185 41.9766 81.4896 42.4659 81.3437 42.9921H90.9783C90.8325 42.4401 90.6127 41.9341 90.3192 41.4762C90.0237 41.0183 89.6674 40.6232 89.2501 40.2927C88.8328 39.9603 88.3564 39.7055 87.821 39.5227C87.2855 39.3418 86.7094 39.2513 86.0927 39.2513ZM92.1342 51.5245C91.3347 52.2039 90.4613 52.7394 89.5141 53.1308C88.5669 53.5204 87.5255 53.7162 86.3918 53.7162C85.1677 53.7162 84.0063 53.4854 82.9095 53.0219C81.8109 52.5585 80.8489 51.9251 80.0254 51.1164C79.2 50.3095 78.5427 49.3641 78.0589 48.2785C77.5733 47.1946 77.3296 46.0258 77.3296 44.7739C77.3296 43.9671 77.4293 43.1879 77.6287 42.4345C77.8281 41.683 78.1125 40.9777 78.4799 40.3185C78.8474 39.6612 79.2942 39.0574 79.8204 38.509C80.3466 37.9606 80.9338 37.4917 81.5819 37.1002C82.23 36.7106 82.9335 36.4078 83.6905 36.1955C84.4475 35.9831 85.2489 35.876 86.0927 35.876C86.7814 35.876 87.4628 35.9591 88.133 36.129C88.8051 36.297 89.4403 36.5352 90.0441 36.8436C90.6478 37.1519 91.211 37.5267 91.7391 37.9662C92.2653 38.4056 92.7269 38.9023 93.1276 39.4562C93.6704 40.2188 94.0693 41.0405 94.3241 41.9194C94.577 42.8001 94.7044 43.775 94.7044 44.8441C94.7044 45.1081 94.6933 45.3279 94.6693 45.5033C94.6453 45.6805 94.5899 45.8227 94.4995 45.9317C94.409 46.0406 94.2742 46.12 94.0914 46.1698C93.9105 46.2197 93.6557 46.2455 93.3288 46.2455H81.2606C81.3769 46.8992 81.6022 47.4771 81.9327 47.9812C82.2651 48.4834 82.6565 48.9118 83.1107 49.2607C83.5631 49.6097 84.058 49.8719 84.5934 50.0492C85.1289 50.2264 85.6625 50.3151 86.198 50.3151C86.6079 50.3151 86.9993 50.2744 87.376 50.1932C87.7526 50.1119 88.1035 50.003 88.4303 49.8664C88.7571 49.7297 89.0599 49.5746 89.335 49.3974C89.612 49.2201 89.8539 49.0373 90.0625 48.8471C90.0625 48.8379 90.0681 48.8324 90.0773 48.8324C90.1862 48.7327 90.2896 48.6533 90.3893 48.5942C90.489 48.5351 90.5943 48.5056 90.7014 48.5056C90.7826 48.5056 90.8768 48.5333 90.9802 48.5887C91.0836 48.6422 91.187 48.7345 91.2867 48.8601C91.5304 49.1592 91.7409 49.4085 91.9126 49.6079C92.0843 49.8073 92.2247 49.9753 92.3355 50.1119C92.4444 50.2486 92.5238 50.3649 92.5736 50.4665C92.6217 50.5662 92.6475 50.6659 92.6475 50.7656C92.6475 51.0204 92.4758 51.2733 92.1305 51.5282" fill="#009F69"/>
<path d="M97.2173 36.319C97.4481 36.2064 97.7362 36.1491 98.0814 36.1491H99.4552C99.7192 36.1491 99.9131 36.2359 100.04 36.4095C100.168 36.5812 100.253 36.7732 100.299 36.9837L100.449 38.2947C100.657 37.9845 100.897 37.6872 101.171 37.401C101.444 37.1148 101.767 36.8619 102.144 36.644C102.52 36.4243 102.96 36.2488 103.464 36.1178C103.968 35.9867 104.553 35.9202 105.225 35.9202C105.86 35.9202 106.437 35.9811 106.953 36.1048C107.47 36.2285 107.938 36.4095 108.355 36.6514C108.772 36.8932 109.149 37.1887 109.485 37.5395C109.821 37.8903 110.124 38.2928 110.397 38.7489C110.615 38.3205 110.909 37.9291 111.282 37.5746C111.654 37.2182 112.081 36.9173 112.568 36.6661C113.054 36.4169 113.588 36.223 114.167 36.0864C114.747 35.9497 115.351 35.8814 115.977 35.8814C117.048 35.8814 117.988 36.0771 118.8 36.4667C119.613 36.8563 120.29 37.3918 120.835 38.0731C121.38 38.7526 121.79 39.5466 122.066 40.4531C122.343 41.3597 122.482 42.331 122.482 43.365V52.4401C122.482 52.7669 122.404 53.0144 122.251 53.1805C122.096 53.3486 121.874 53.4316 121.585 53.4316H119.517C119.153 53.4316 118.911 53.3633 118.787 53.2267C118.665 53.0901 118.604 52.8519 118.604 52.5066V43.3723C118.604 42.8904 118.536 42.4251 118.399 41.9728C118.263 41.5185 118.052 41.1179 117.766 40.7689C117.48 40.4199 117.122 40.1393 116.692 39.9251C116.261 39.7127 115.746 39.6056 115.148 39.6056C114.649 39.6056 114.186 39.6943 113.759 39.8715C113.333 40.0488 112.965 40.3017 112.657 40.6323C112.349 40.9628 112.107 41.3616 111.93 41.8269C111.752 42.294 111.664 42.8129 111.664 43.3834V52.4512C111.664 53.103 111.368 53.4298 110.779 53.4298H108.698C108.335 53.4298 108.095 53.3615 107.976 53.2248C107.858 53.0882 107.799 52.85 107.799 52.5047V43.3834C107.799 42.9126 107.733 42.4528 107.602 42.0041C107.47 41.5555 107.266 41.1548 106.99 40.8021C106.713 40.4476 106.357 40.1633 105.921 39.9454C105.487 39.7275 104.97 39.6186 104.37 39.6186C103.953 39.6186 103.536 39.698 103.118 39.8568C102.701 40.0155 102.323 40.2445 101.983 40.5436C101.641 40.8427 101.364 41.2102 101.147 41.6441C100.929 42.0798 100.814 42.5728 100.807 43.1268V52.6285C100.807 52.8629 100.729 53.0568 100.576 53.2064C100.421 53.3559 100.227 53.4298 99.9906 53.4298H97.7454C97.4463 53.4298 97.2247 53.3596 97.0862 53.2193C96.944 53.079 96.8757 52.8777 96.8757 52.6137V36.9523C96.8757 36.644 96.9921 36.4335 97.2229 36.319" fill="#009F69"/>
<path d="M124.939 36.9802C124.939 36.7457 125.008 36.5463 125.144 36.3893C125.279 36.2305 125.48 36.1511 125.743 36.1511H128.001C128.101 36.1511 128.202 36.1714 128.307 36.2121C128.413 36.2527 128.505 36.3118 128.586 36.3893C128.667 36.4669 128.736 36.5555 128.789 36.6552C128.845 36.7549 128.872 36.8638 128.872 36.982V52.6157C128.872 53.1604 128.586 53.4318 128.014 53.4318H125.756C125.211 53.4318 124.939 53.1604 124.939 52.6157V36.982V36.9802Z" fill="#009F69"/>
<path d="M131.838 36.5444C131.947 36.3986 132.05 36.3099 132.15 36.273C132.224 36.1991 132.331 36.1622 132.477 36.1567C132.623 36.1511 132.757 36.1493 132.885 36.1493H134.26C134.524 36.1493 134.718 36.2361 134.846 36.4078C134.971 36.5795 135.058 36.7697 135.104 36.9783L135.254 38.4204C135.462 38.112 135.719 37.8074 136.024 37.5083C136.327 37.2091 136.687 36.9414 137.106 36.7051C137.523 36.4687 137.999 36.2785 138.535 36.1327C139.07 35.9868 139.674 35.9148 140.344 35.9148C141.415 35.9148 142.368 36.1068 143.203 36.4927C144.037 36.8786 144.739 37.4067 145.311 38.077C145.882 38.7491 146.316 39.5375 146.611 40.4441C146.905 41.3507 147.052 42.3256 147.052 43.3688V52.444C147.052 52.7708 146.975 53.0145 146.822 53.1788C146.666 53.3413 146.445 53.4226 146.155 53.4226H144.087C143.723 53.4226 143.481 53.3542 143.36 53.2176C143.238 53.081 143.177 52.8409 143.177 52.4957V43.4334C143.177 42.9515 143.094 42.4825 142.931 42.0246C142.767 41.5667 142.529 41.1568 142.217 40.793C141.905 40.4293 141.517 40.1394 141.053 39.9215C140.592 39.7037 140.056 39.5947 139.449 39.5947C139.032 39.5947 138.599 39.6796 138.149 39.8477C137.7 40.0157 137.289 40.2539 136.917 40.5622C136.544 40.8706 136.238 41.2454 135.992 41.6849C135.747 42.1243 135.619 42.621 135.612 43.1749V51.9916C135.612 52.1652 135.603 52.3369 135.584 52.5086C135.566 52.6821 135.527 52.8354 135.468 52.972C135.409 53.1087 135.326 53.2176 135.217 53.2989C135.108 53.3801 134.968 53.4207 134.794 53.4207H132.549C132.25 53.4207 132.03 53.3506 131.888 53.2102C131.747 53.0699 131.677 52.8686 131.677 52.6046V36.9433C131.677 36.8158 131.731 36.6792 131.84 36.5352" fill="#009F69"/>
<path d="M155.381 53.4299C154.665 53.4207 153.991 53.3118 153.361 53.1031C152.73 52.8945 152.181 52.5917 151.714 52.1965C151.247 51.8014 150.878 51.3158 150.605 50.7397C150.331 50.1636 150.196 49.5063 150.196 48.7714V39.5781H148.631C148.367 39.5781 148.171 39.519 148.04 39.4027C147.909 39.2864 147.842 39.0906 147.842 38.8192V36.8675C147.842 36.6053 147.907 36.4207 148.04 36.3118C148.171 36.2047 148.369 36.1493 148.631 36.1493H150.196C150.196 35.6692 150.198 35.1891 150.202 34.7146C150.208 34.2382 150.209 33.76 150.209 33.2781C150.209 33.0971 150.267 32.955 150.379 32.8497C150.492 32.7463 150.667 32.6522 150.904 32.5709C151.057 32.5155 151.245 32.4509 151.461 32.3734C151.679 32.2958 151.904 32.2219 152.135 32.1481C152.366 32.0761 152.589 32.0151 152.807 31.9634C153.025 31.9154 153.206 31.8896 153.352 31.8896C153.635 31.8896 153.817 31.9671 153.902 32.1204C153.989 32.2755 154.031 32.4786 154.031 32.7334C154.031 33.3039 154.031 33.8745 154.026 34.4413C154.02 35.0082 154.019 35.5769 154.019 36.1493H155.978C156.214 36.1493 156.395 36.2102 156.522 36.3321C156.65 36.4539 156.712 36.646 156.712 36.9082V38.7638C156.712 39.0537 156.65 39.2605 156.522 39.3879C156.395 39.5153 156.214 39.5781 155.978 39.5781H154.019V42.1594C154.019 42.4733 154.02 42.7669 154.026 43.0383C154.031 43.3116 154.031 43.6051 154.031 43.9227V46.5114C154.031 46.5299 154.031 46.5483 154.026 46.5668C154.02 46.5853 154.019 46.6019 154.019 46.6203V48.4058C154.019 49.0059 154.137 49.4361 154.373 49.7002C154.609 49.9642 154.99 50.0953 155.516 50.0953C155.706 50.0953 155.858 50.1636 155.965 50.3003C156.074 50.4369 156.129 50.5994 156.129 50.7896V52.6821C156.129 52.9185 156.063 53.1013 155.931 53.2324C155.8 53.3635 155.616 53.4299 155.381 53.4299Z" fill="#009F69"/>
<path d="M126.906 29.4208C123.8 29.4208 123.795 34.2474 126.906 34.2474C130.017 34.2474 130.017 29.4208 126.906 29.4208Z" fill="#009F69"/>
<path d="M166.264 24.9119V35.5233C170.061 35.5233 173.142 32.4619 173.174 28.6694V24.9138H166.264V24.9119Z" fill="#00D679"/>
<path d="M180 18.0856C176.23 18.0856 173.172 21.1433 173.172 24.9137H180V18.0856Z" fill="#009F69"/>
<path d="M173.173 17V24.9119H157.363C157.363 20.5451 160.9 17.0074 165.265 17.0074V17H173.173Z" fill="#007D64"/>
</svg>
